Coordinates
version=1
nRows=7
nColumns=63
inDegrees=yes

Units are S.I. units (second, meters, Newtons, ...)
If the header above contains a line with 'inDegrees', this indicates whether rotational values are in degrees (yes) or radians (no).

endheader
time	pelvis_tilt	pelvis_list	pelvis_rotation	pelvis_tx	pelvis_ty	pelvis_tz	hip_flexion_r	hip_adduction_r	hip_rotation_r	knee_angle_r	knee_angle_r_beta	ankle_angle_r	subtalar_angle_r	mtp_angle_r	hip_flexion_l	hip_adduction_l	hip_rotation_l	knee_angle_l	knee_angle_l_beta	ankle_angle_l	subtalar_angle_l	mtp_angle_l	L5_S1_Flex_Ext	L5_S1_Lat_Bending	L5_S1_axial_rotation	L4_L5_Flex_Ext	L4_L5_Lat_Bending	L4_L5_axial_rotation	L3_L4_Flex_Ext	L3_L4_Lat_Bending	L3_L4_axial_rotation	L2_L3_Flex_Ext	L2_L3_Lat_Bending	L2_L3_axial_rotation	L1_L2_Flex_Ext	L1_L2_Lat_Bending	L1_L2_axial_rotation	L1_T12_Flex_Ext	L1_T12_Lat_Bending	L1_T12_axial_rotation	Abs_r3	Abs_r2	Abs_r1	Abs_t1	Abs_t2	neck_flexion	neck_bending	neck_rotation	arm_flex_r	arm_add_r	arm_rot_r	elbow_flex_r	pro_sup_r	wrist_flex_r	wrist_dev_r	arm_flex_l	arm_add_l	arm_rot_l	elbow_flex_l	pro_sup_l	wrist_flex_l	wrist_dev_l
      0.80000000	     -2.97012952	     -3.89557951	     81.51883661	      0.10978703	      0.98183834	      0.30371416	     -1.91537681	     -1.71762730	    -13.93797231	      2.29253755	      0.04001233	     17.58936121	     17.49525837	      0.00000000	     -1.24626826	      4.11870574	     -1.59327649	      3.01772233	      0.05266919	      9.86124092	    -17.32432400	      0.00000000	      0.00203817	     -0.19073047	      1.59946879	      0.00378508	     -0.25367152	      1.69943559	      0.00334851	     -0.46374206	      1.69943559	      0.00232942	     -0.46374206	      1.39953519	      0.00189264	     -0.38893757	      1.29956840	      0.00116461	     -0.29544149	      1.19960160	      0.01455843	     -2.15758120	      8.89576559	      0.00000000	      0.00000000	     14.64156932	      0.27413806	    -12.13858984	     15.96318430	    -10.88659294	     46.28116074	     48.97317606	     77.80872984	      3.13321349	     10.08185047	     23.47439481	    -10.35948395	     63.22632456	     37.90667611	     58.75812476	     -1.39099258	      1.51585007
      0.81666667	     -2.71409194	     -3.96594717	     81.87942478	      0.10874566	      0.98189980	      0.30410232	     -1.71372330	     -1.53713283	    -14.39788307	      2.73099714	      0.04766489	     17.51658544	     17.58213111	      0.00000000	     -1.10392678	      3.83638125	     -1.38969385	      3.09398377	      0.05400020	      9.96774397	    -17.21708192	      0.00000000	      0.00230088	     -0.15198559	      1.38046720	      0.00427296	     -0.20214083	      1.46674640	      0.00378011	     -0.36953776	      1.46674640	      0.00262967	     -0.36953776	      1.20790880	      0.00213660	     -0.30992901	      1.12162960	      0.00131472	     -0.23542568	      1.03535040	      0.01643494	     -1.71929137	      7.67774445	      0.00000000	      0.00000000	     14.23858355	      0.24526665	    -11.52938031	     17.07096961	    -12.07959079	     49.90581744	     48.48327045	     86.39412515	     -0.89389233	      6.12805750	     22.24399695	    -11.11025020	     61.65334655	     37.61355881	     59.72189239	     -2.36137003	      2.19722433
      0.83333333	     -2.66104731	     -3.96839463	     82.26744597	      0.10813453	      0.98192558	      0.30458976	     -1.59312359	     -1.54515928	    -14.99232308	      3.14230643	      0.05484359	     17.40006780	     17.64359490	      0.00000000	     -0.94889602	      3.74408809	     -1.13444178	      3.22154575	      0.05622658	     10.04828851	    -17.22812087	      0.00000000	     -0.00338500	     -0.14322352	      1.21564584	     -0.00628629	     -0.19048728	      1.29162371	     -0.00556122	     -0.34823367	      1.29162371	     -0.00386872	     -0.34823367	      1.06369011	     -0.00314332	     -0.29206140	      0.98771225	     -0.00193419	     -0.22185323	      0.91173438	     -0.02417875	     -1.62017311	      6.76105749	      0.00000000	      0.00000000	     13.92530571	      0.69925702	    -10.62748918	     18.27998211	    -12.98944848	     54.15820854	     47.30469807	     88.61349150	     -5.96321942	      2.28248091	     21.08817830	    -11.98343879	     60.32050667	     37.05972951	     63.20847068	     -3.31423501	      1.39597057
      0.85000000	     -2.52359320	     -3.94922264	     82.52523313	      0.10766191	      0.98187906	      0.30534249	     -1.48159418	     -1.47532990	    -15.42229068	      3.56542853	      0.06222847	     17.17564588	     17.72729827	      0.00000000	     -0.80433453	      3.55711852	     -0.85651716	      3.36803835	      0.05878336	     10.31041553	    -17.17957344	      0.00000000	     -0.01637179	     -0.11971610	      1.02067268	     -0.03040406	     -0.15922242	      1.08446472	     -0.02689722	     -0.29107773	      1.08446472	     -0.01871132	     -0.29107773	      0.89308859	     -0.01520285	     -0.24412508	      0.82929655	     -0.00935484	     -0.18544024	      0.76550451	     -0.11694209	     -1.35425250	      5.67667524	      0.00000000	      0.00000000	     13.69329653	      0.92551928	     -9.42305409	     20.37119627	    -13.50588637	     60.26274121	     45.30140094	     88.97770998	    -11.56425439	     -1.10800920	     19.08066898	    -12.75134798	     55.36766652	     36.81305434	     72.23566022	     -3.27896778	      1.84499161
      0.86666667	     -2.42643081	     -4.04512373	     82.77094201	      0.10736963	      0.98159390	      0.30618997	     -1.27668059	     -1.39635012	    -15.90588143	      3.89598011	      0.06799768	     16.83015941	     17.66947003	      0.00000000	     -0.49653853	      3.40070745	     -0.65989828	      3.55513010	      0.06204873	     10.45212281	    -17.21536807	      0.00000000	     -0.01569582	     -0.10567350	      0.96362750	     -0.02914870	     -0.14054575	      1.02385422	     -0.02578665	     -0.25693454	      1.02385422	     -0.01793875	     -0.25693454	      0.84317407	     -0.01457513	     -0.21548940	      0.78294735	     -0.00896859	     -0.16368825	      0.72272063	     -0.11211364	     -1.19539974	      5.35940708	      0.00000000	      0.00000000	     13.80233796	      0.95500811	     -9.19865151	     21.29679666	    -13.82192963	     63.35042529	     43.42457273	     89.05518112	    -15.87628931	     -3.51901594	     18.47368983	    -13.54585605	     54.88484438	     35.93044868	     79.86135536	     -4.79812502	      0.16247625
      0.88333333	     -2.36125124	     -4.16966265	     82.93185412	      0.10743555	      0.98123066	      0.30733009	     -1.05443212	     -1.31357137	    -16.24208316	      4.10855782	      0.07170786	     16.40033622	     17.63849308	      0.00000000	     -0.09198507	      3.25134278	     -0.41524382	      3.87206566	      0.06758029	     10.67521503	    -17.18211686	      0.00000000	     -0.01487877	     -0.09857814	      0.99265518	     -0.02763136	     -0.13110893	      1.05469613	     -0.02444433	     -0.23968289	      1.05469613	     -0.01700495	     -0.23968289	      0.86857328	     -0.01381643	     -0.20102055	      0.80653234	     -0.00850173	     -0.15269754	      0.74449139	     -0.10627756	     -1.11513565	      5.52085033	      0.00000000	      0.00000000	     14.01556213	      0.88440041	     -9.31468823	     21.20247250	    -14.04534865	     63.30827543	     41.99625886	     88.96599539	    -17.57027969	     -4.08449120	     19.01962226	    -14.35437114	     57.63506190	     34.56083383	     84.61930777	     -6.64371046	     -1.63591629
      0.90000000	     -2.26924365	     -4.27478171	     82.92868507	      0.10774080	      0.98092211	      0.30834977	     -0.90267661	     -1.17914081	    -16.43843554	      4.16035776	      0.07261194	     15.92069142	     17.66553640	      0.00000000	      0.23593260	      3.09159650	     -0.36473578	      4.14523498	      0.07234800	     10.80976235	    -17.10165185	      0.00000000	     -0.01987577	     -0.08980651	      1.06147735	     -0.03691129	     -0.11944266	      1.12781969	     -0.03265390	     -0.21835554	      1.12781969	     -0.02271602	     -0.21835554	      0.92879268	     -0.01845664	     -0.18313343	      0.86245035	     -0.01135701	     -0.13911028	      0.79610801	     -0.14197063	     -1.01590918	      5.90361859	      0.00000000	      0.00000000	     14.31474411	      0.68000574	     -9.72181912	     20.45698848	    -14.22385395	     61.36208366	     40.99093087	     88.63166103	    -17.58694750	     -3.28306786	     19.82601179	    -15.04418466	     61.16726367	     33.31248775	     87.11508258	     -9.22892039	     -2.60529460
